<svg xmlns="http://www.w3.org/2000/svg" viewBox="0 0 159.67 126.93"><defs><style>.cls-1{fill:#caa07f;}.cls-2{fill:#fff;stroke:#fff;}.cls-2,.cls-4,.cls-5{stroke-linecap:round;stroke-linejoin:round;}.cls-2,.cls-3,.cls-4,.cls-5{stroke-width:5px;}.cls-3,.cls-4,.cls-5{stroke:#000;}.cls-3{stroke-miterlimit:10;}.cls-4{fill:none;}</style></defs><g id="レイヤー_2" data-name="レイヤー 2"><g id="レイヤー_4" data-name="レイヤー 4"><path class="cls-1" d="M79.83,126.93c-38.25,0-69.25-28.32-69.25-63.26S41.58.41,79.83.41s69.26,28.32,69.26,63.26S118.08,126.93,79.83,126.93Z"/><path class="cls-1" d="M46,9.1C40.18,3.6,29.36-1.12,20.81.23,12,1.63,12,11.93,13,18.25a37,37,0,0,0,6.74,16.32"/><path class="cls-1" d="M114.91,9.1c5.83-5.5,16.65-10.22,25.21-8.87,8.85,1.4,8.82,11.7,7.82,18a37.12,37.12,0,0,1-6.75,16.32"/></g><g id="レイヤー_1-2" data-name="レイヤー 1"><circle class="cls-2" cx="108.06" cy="36.28" r="12.67"/><circle class="cls-3" cx="112.94" cy="34.67" r="3.11"/><path class="cls-4" d="M122.06,65.17c5.06,8.85,6.62,20.89,1.38,30.22-3.37,6-11.58,8.94-18,8.41-17.72-1.48-23.46-19.19-25.56-34V66.5"/><circle class="cls-2" cx="51.61" cy="36.28" r="12.67"/><circle class="cls-3" cx="56.06" cy="34.67" r="3.11"/><path class="cls-5" d="M73.17,47.5H88.94a62.52,62.52,0,0,1-1,9.86c-.7,3.28-1,4.14-3.64,6.52a19.2,19.2,0,0,1-4.45,2.62"/><path class="cls-5" d="M86.5,47.5H70.72a65.21,65.21,0,0,0,1,9.86c.71,3.28,1,4.14,3.65,6.52a19,19,0,0,0,4.44,2.62"/><path class="cls-4" d="M37.61,65.17C32.55,74,31,86.06,36.23,95.39c3.37,6,11.58,8.94,18.05,8.41,17.72-1.48,23.45-19.19,25.55-34V66.5"/><line class="cls-4" x1="34.5" y1="71.62" x2="6.28" y2="67.18"/><line class="cls-4" x1="32.68" y1="84.14" x2="2.5" y2="89.63"/><line class="cls-4" x1="125.17" y1="71.62" x2="153.39" y2="67.18"/><line class="cls-4" x1="126.98" y1="84.14" x2="157.17" y2="89.63"/></g></g></svg>